<?xml version="1.0" standalone="no"?>
<!DOCTYPE svg PUBLIC "-//W3C//DTD SVG 20010904//EN"
 "http://www.w3.org/TR/2001/REC-SVG-20010904/DTD/svg10.dtd">
<svg version="1.0" xmlns="http://www.w3.org/2000/svg"
 width="1000.000000pt" height="1000.000000pt" viewBox="0 0 1000.000000 1000.000000"
 preserveAspectRatio="xMidYMid meet">
<metadata>
Created by potrace 1.14, written by Peter Selinger 2001-2017
</metadata>
<g transform="translate(0.000000,1000.000000) scale(0.100000,-0.100000)"
fill="#000000" stroke="none">
<path d="M387 7474 c-1 -1 -14 -5 -29 -8 -61 -11 -104 -54 -122 -122 -16 -65
-15 -4425 1 -4465 21 -49 63 -88 111 -102 39 -12 334 -14 1777 -12 1580 1
1740 3 1840 19 61 9 116 19 123 21 43 15 105 16 120 2 47 -42 -38 -41 2552
-43 1690 -1 2489 1 2520 9 79 18 122 60 135 133 11 59 11 1394 1 1429 -21 72
-62 117 -117 132 -13 3 -480 7 -1037 8 -556 1 -1015 4 -1018 7 -3 3 61 47 143
97 81 51 155 96 163 101 224 139 372 230 375 230 3 0 24 13 47 29 24 16 340
213 703 436 425 262 673 421 697 446 24 27 39 54 44 82 9 52 7 1401 -2 1442
-10 43 -47 89 -91 111 -37 18 -107 19 -2523 20 -1477 0 -2499 -3 -2521 -8 -19
-5 -48 -20 -64 -32 l-28 -22 -81 17 c-45 9 -108 20 -141 24 -33 4 -69 10 -80
13 -20 5 -3492 11 -3498 6z m2963 -1718 c112 -7 150 -13 208 -32 168 -55 267
-163 318 -349 22 -83 27 -362 8 -469 -28 -153 -121 -298 -225 -347 -166 -80
-185 -82 -899 -81 -300 0 -551 1 -557 1 -17 1 -19 1277 -3 1283 18 6 1053 1
1150 -6z m2975 2 c3 -3 -102 -71 -232 -151 -130 -80 -239 -145 -240 -143 -5 4
-12 42 -18 91 -3 22 -12 75 -21 119 -10 51 -12 81 -6 85 12 7 510 6 517 -1z"/>
</g>
</svg>
